<svg xmlns="http://www.w3.org/2000/svg" xmlns:xlink="http://www.w3.org/1999/xlink" width="1095pt" height="4520pt" viewBox="0.00 0.00 262.76 1084.80">
<g id="graph0" class="graph" transform="scale(4.16667 4.16667) rotate(0) translate(4 1080.8)">
<title>AttackFlow</title>
<polygon fill="white" stroke="none" points="-4,4 -4,-1080.8 258.76,-1080.8 258.76,4 -4,4"/>
<!-- Reconnaissance -->
<g id="node1" class="node">
<title>Reconnaissance</title>
<path fill="lightblue" stroke="black" d="M185.49,-1076.8C185.49,-1076.8 20.05,-1076.8 20.05,-1076.8 14.05,-1076.8 8.05,-1070.8 8.05,-1064.8 8.05,-1064.8 8.05,-1044.8 8.05,-1044.8 8.05,-1038.8 14.05,-1032.8 20.05,-1032.8 20.05,-1032.8 185.49,-1032.8 185.49,-1032.8 191.49,-1032.8 197.49,-1038.8 197.49,-1044.8 197.49,-1044.8 197.49,-1064.8 197.49,-1064.8 197.49,-1070.8 191.49,-1076.8 185.49,-1076.8"/>
<text text-anchor="middle" x="102.77" y="-1063.8" font-family="Arial" font-size="10.00">Reconnaissance</text>
<text text-anchor="middle" x="102.77" y="-1051.8" font-family="Arial" font-size="10.00">- Enumerate open ports and services</text>
<text text-anchor="middle" x="102.77" y="-1039.8" font-family="Arial" font-size="10.00">- Identify technologies and subdomains</text>
</g>
<!-- SQL_Injection_Discovery -->
<g id="node2" class="node">
<title>SQL_Injection_Discovery</title>
<path fill="lightblue" stroke="black" d="M173.52,-949.2C173.52,-949.2 32.01,-949.2 32.01,-949.2 26.01,-949.2 20.01,-943.2 20.01,-937.2 20.01,-937.2 20.01,-917.2 20.01,-917.2 20.01,-911.2 26.01,-905.2 32.01,-905.2 32.01,-905.2 173.52,-905.2 173.52,-905.2 179.52,-905.2 185.52,-911.2 185.52,-917.2 185.52,-917.2 185.52,-937.2 185.52,-937.2 185.52,-943.2 179.52,-949.2 173.52,-949.2"/>
<text text-anchor="middle" x="102.77" y="-936.2" font-family="Arial" font-size="10.00">SQL Injection Discovery</text>
<text text-anchor="middle" x="102.77" y="-924.2" font-family="Arial" font-size="10.00">- Vulnerability in Forgot Password</text>
<text text-anchor="middle" x="102.77" y="-912.2" font-family="Arial" font-size="10.00">- Error-based injection</text>
</g>
<!-- Reconnaissance&#45;&gt;SQL_Injection_Discovery -->
<g id="edge1" class="edge">
<title>Reconnaissance-&gt;SQL_Injection_Discovery</title>
<path fill="none" stroke="gray" stroke-width="1.2" d="M102.77,-1032.49C102.77,-1012.28 102.77,-981.7 102.77,-958.87"/>
<polygon fill="gray" stroke="gray" stroke-width="1.2" points="102.77,-951.07 106.37,-959.07 102.87,-953.61 102.87,-959.07 102.77,-959.07 102.67,-959.07 102.67,-953.61 99.17,-959.07 102.77,-951.07"/>
<text text-anchor="middle" x="178.76" y="-995.2" font-family="Times,serif" font-size="14.00">Analyze HTTP service</text>
<text text-anchor="middle" x="178.76" y="-978.4" font-family="Times,serif" font-size="14.00">and discover attack vectors</text>
</g>
<!-- Database_Enumeration -->
<g id="node3" class="node">
<title>Database_Enumeration</title>
<path fill="lightblue" stroke="black" d="M193.54,-821.6C193.54,-821.6 12,-821.6 12,-821.6 6,-821.6 0,-815.6 0,-809.6 0,-809.6 0,-789.6 0,-789.6 0,-783.6 6,-777.6 12,-777.6 12,-777.6 193.54,-777.6 193.54,-777.6 199.54,-777.6 205.54,-783.6 205.54,-789.6 205.54,-789.6 205.54,-809.6 205.54,-809.6 205.54,-815.6 199.54,-821.6 193.54,-821.6"/>
<text text-anchor="middle" x="102.77" y="-808.6" font-family="Arial" font-size="10.00">Database Enumeration</text>
<text text-anchor="middle" x="102.77" y="-796.6" font-family="Arial" font-size="10.00">- Information schema extraction</text>
<text text-anchor="middle" x="102.77" y="-784.6" font-family="Arial" font-size="10.00">- Extract usernames and password hashes</text>
</g>
<!-- SQL_Injection_Discovery&#45;&gt;Database_Enumeration -->
<g id="edge2" class="edge">
<title>SQL_Injection_Discovery-&gt;Database_Enumeration</title>
<path fill="none" stroke="gray" stroke-width="1.2" d="M102.77,-904.89C102.77,-884.68 102.77,-854.1 102.77,-831.27"/>
<polygon fill="gray" stroke="gray" stroke-width="1.2" points="102.77,-823.47 106.37,-831.47 102.87,-826.01 102.87,-831.47 102.77,-831.47 102.67,-831.47 102.67,-826.01 99.17,-831.47 102.77,-823.47"/>
<text text-anchor="middle" x="151.56" y="-867.6" font-family="Times,serif" font-size="14.00">Perform</text>
<text text-anchor="middle" x="151.56" y="-850.8" font-family="Times,serif" font-size="14.00">error-based SQLi</text>
</g>
<!-- Credentials_Cracking -->
<g id="node4" class="node">
<title>Credentials_Cracking</title>
<path fill="lightblue" stroke="black" d="M165.74,-694C165.74,-694 39.8,-694 39.8,-694 33.8,-694 27.8,-688 27.8,-682 27.8,-682 27.8,-662 27.8,-662 27.8,-656 33.8,-650 39.8,-650 39.8,-650 165.74,-650 165.74,-650 171.74,-650 177.74,-656 177.74,-662 177.74,-662 177.74,-682 177.74,-682 177.74,-688 171.74,-694 165.74,-694"/>
<text text-anchor="middle" x="102.77" y="-681" font-family="Arial" font-size="10.00">Credentials Cracking</text>
<text text-anchor="middle" x="102.77" y="-669" font-family="Arial" font-size="10.00">- Use hash cracking tools</text>
<text text-anchor="middle" x="102.77" y="-657" font-family="Arial" font-size="10.00">- Recover plaintext passwords</text>
</g>
<!-- Database_Enumeration&#45;&gt;Credentials_Cracking -->
<g id="edge3" class="edge">
<title>Database_Enumeration-&gt;Credentials_Cracking</title>
<path fill="none" stroke="gray" stroke-width="1.2" d="M102.77,-777.29C102.77,-757.08 102.77,-726.5 102.77,-703.67"/>
<polygon fill="gray" stroke="gray" stroke-width="1.2" points="102.77,-695.87 106.37,-703.87 102.87,-698.41 102.87,-703.87 102.77,-703.87 102.67,-703.87 102.67,-698.41 99.17,-703.87 102.77,-695.87"/>
<text text-anchor="middle" x="122.98" y="-740" font-family="Times,serif" font-size="14.00">Extract</text>
<text text-anchor="middle" x="122.98" y="-723.2" font-family="Times,serif" font-size="14.00">data</text>
</g>
<!-- Application_Login -->
<g id="node5" class="node">
<title>Application_Login</title>
<path fill="lightblue" stroke="black" d="M149.62,-566.4C149.62,-566.4 55.92,-566.4 55.92,-566.4 49.92,-566.4 43.92,-560.4 43.92,-554.4 43.92,-554.4 43.92,-534.4 43.92,-534.4 43.92,-528.4 49.92,-522.4 55.92,-522.4 55.92,-522.4 149.62,-522.4 149.62,-522.4 155.62,-522.4 161.62,-528.4 161.62,-534.4 161.62,-534.4 161.62,-554.4 161.62,-554.4 161.62,-560.4 155.62,-566.4 149.62,-566.4"/>
<text text-anchor="middle" x="102.77" y="-553.4" font-family="Arial" font-size="10.00">Application Login</text>
<text text-anchor="middle" x="102.77" y="-541.4" font-family="Arial" font-size="10.00">- Access cacti instance</text>
<text text-anchor="middle" x="102.77" y="-529.4" font-family="Arial" font-size="10.00">- Validate credentials</text>
</g>
<!-- Credentials_Cracking&#45;&gt;Application_Login -->
<g id="edge4" class="edge">
<title>Credentials_Cracking-&gt;Application_Login</title>
<path fill="none" stroke="gray" stroke-width="1.2" d="M102.77,-649.69C102.77,-629.48 102.77,-598.9 102.77,-576.07"/>
<polygon fill="gray" stroke="gray" stroke-width="1.2" points="102.77,-568.27 106.37,-576.27 102.87,-570.81 102.87,-576.27 102.77,-576.27 102.67,-576.27 102.67,-570.81 99.17,-576.27 102.77,-568.27"/>
<text text-anchor="middle" x="132.7" y="-612.4" font-family="Times,serif" font-size="14.00">Recovered</text>
<text text-anchor="middle" x="132.7" y="-595.6" font-family="Times,serif" font-size="14.00">passwords</text>
</g>
<!-- Cacti_Exploit -->
<g id="node6" class="node">
<title>Cacti_Exploit</title>
<path fill="lightblue" stroke="black" d="M180.2,-438.8C180.2,-438.8 25.34,-438.8 25.34,-438.8 19.34,-438.8 13.34,-432.8 13.34,-426.8 13.34,-426.8 13.34,-406.8 13.34,-406.8 13.34,-400.8 19.34,-394.8 25.34,-394.8 25.34,-394.8 180.2,-394.8 180.2,-394.8 186.2,-394.8 192.2,-400.8 192.2,-406.8 192.2,-406.8 192.2,-426.8 192.2,-426.8 192.2,-432.8 186.2,-438.8 180.2,-438.8"/>
<text text-anchor="middle" x="102.77" y="-425.8" font-family="Arial" font-size="10.00">Exploit Cacti RCE</text>
<text text-anchor="middle" x="102.77" y="-413.8" font-family="Arial" font-size="10.00">- Exploit CVE to upload reverse shell</text>
<text text-anchor="middle" x="102.77" y="-401.8" font-family="Arial" font-size="10.00">- Trigger shell by accessing PHP file</text>
</g>
<!-- Application_Login&#45;&gt;Cacti_Exploit -->
<g id="edge5" class="edge">
<title>Application_Login-&gt;Cacti_Exploit</title>
<path fill="none" stroke="gray" stroke-width="1.2" d="M102.77,-522.09C102.77,-501.88 102.77,-471.3 102.77,-448.47"/>
<polygon fill="gray" stroke="gray" stroke-width="1.2" points="102.77,-440.67 106.37,-448.67 102.87,-443.21 102.87,-448.67 102.77,-448.67 102.67,-448.67 102.67,-443.21 99.17,-448.67 102.77,-440.67"/>
<text text-anchor="middle" x="164" y="-484.8" font-family="Times,serif" font-size="14.00">Identify and</text>
<text text-anchor="middle" x="164" y="-468" font-family="Times,serif" font-size="14.00">exploit vulnerabilities</text>
</g>
<!-- Initial_Shell -->
<g id="node7" class="node">
<title>Initial_Shell</title>
<path fill="lightblue" stroke="black" d="M182.7,-311.2C182.7,-311.2 22.84,-311.2 22.84,-311.2 16.84,-311.2 10.84,-305.2 10.84,-299.2 10.84,-299.2 10.84,-279.2 10.84,-279.2 10.84,-273.2 16.84,-267.2 22.84,-267.2 22.84,-267.2 182.7,-267.2 182.7,-267.2 188.7,-267.2 194.7,-273.2 194.7,-279.2 194.7,-279.2 194.7,-299.2 194.7,-299.2 194.7,-305.2 188.7,-311.2 182.7,-311.2"/>
<text text-anchor="middle" x="102.77" y="-298.2" font-family="Arial" font-size="10.00">Initial Shell</text>
<text text-anchor="middle" x="102.77" y="-286.2" font-family="Arial" font-size="10.00">- Gain foothold with low-privilege shell</text>
<text text-anchor="middle" x="102.77" y="-274.2" font-family="Arial" font-size="10.00">- Stabilize shell environment</text>
</g>
<!-- Cacti_Exploit&#45;&gt;Initial_Shell -->
<g id="edge6" class="edge">
<title>Cacti_Exploit-&gt;Initial_Shell</title>
<path fill="none" stroke="gray" stroke-width="1.2" d="M102.77,-394.49C102.77,-374.28 102.77,-343.7 102.77,-320.87"/>
<polygon fill="gray" stroke="gray" stroke-width="1.2" points="102.77,-313.07 106.37,-321.07 102.87,-315.61 102.87,-321.07 102.77,-321.07 102.67,-321.07 102.67,-315.61 99.17,-321.07 102.77,-313.07"/>
<text text-anchor="middle" x="145.71" y="-357.2" font-family="Times,serif" font-size="14.00">Trigger reverse</text>
<text text-anchor="middle" x="145.71" y="-340.4" font-family="Times,serif" font-size="14.00">shell</text>
</g>
<!-- Privilege_Escalation -->
<g id="node8" class="node">
<title>Privilege_Escalation</title>
<path fill="lightblue" stroke="black" d="M180.75,-183.6C180.75,-183.6 24.79,-183.6 24.79,-183.6 18.79,-183.6 12.79,-177.6 12.79,-171.6 12.79,-171.6 12.79,-139.6 12.79,-139.6 12.79,-133.6 18.79,-127.6 24.79,-127.6 24.79,-127.6 180.75,-127.6 180.75,-127.6 186.75,-127.6 192.75,-133.6 192.75,-139.6 192.75,-139.6 192.75,-171.6 192.75,-171.6 192.75,-177.6 186.75,-183.6 180.75,-183.6"/>
<text text-anchor="middle" x="102.77" y="-170.6" font-family="Arial" font-size="10.00">Privilege Escalation</text>
<text text-anchor="middle" x="102.77" y="-158.6" font-family="Arial" font-size="10.00">- Discover Duplicati backup service</text>
<text text-anchor="middle" x="102.77" y="-146.6" font-family="Arial" font-size="10.00">- Extract sensitive data from backups</text>
<text text-anchor="middle" x="102.77" y="-134.6" font-family="Arial" font-size="10.00">- Restore malicious cron job</text>
</g>
<!-- Initial_Shell&#45;&gt;Privilege_Escalation -->
<g id="edge7" class="edge">
<title>Initial_Shell-&gt;Privilege_Escalation</title>
<path fill="none" stroke="gray" stroke-width="1.2" d="M102.77,-266.76C102.77,-246.92 102.77,-217 102.77,-193.35"/>
<polygon fill="gray" stroke="gray" stroke-width="1.2" points="102.77,-185.43 106.37,-193.43 102.87,-187.97 102.87,-193.43 102.77,-193.43 102.67,-193.43 102.67,-187.97 99.17,-193.43 102.77,-185.43"/>
<text text-anchor="middle" x="151.56" y="-229.6" font-family="Times,serif" font-size="14.00">Inspect processes</text>
<text text-anchor="middle" x="151.56" y="-212.8" font-family="Times,serif" font-size="14.00">and files</text>
</g>
<!-- Root_Shell -->
<g id="node9" class="node">
<title>Root_Shell</title>
<path fill="lightblue" stroke="black" d="M139.34,-44C139.34,-44 66.2,-44 66.2,-44 60.2,-44 54.2,-38 54.2,-32 54.2,-32 54.2,-12 54.2,-12 54.2,-6 60.2,0 66.2,0 66.2,0 139.34,0 139.34,0 145.34,0 151.34,-6 151.34,-12 151.34,-12 151.34,-32 151.34,-32 151.34,-38 145.34,-44 139.34,-44"/>
<text text-anchor="middle" x="102.77" y="-31" font-family="Arial" font-size="10.00">Root Shell</text>
<text text-anchor="middle" x="102.77" y="-19" font-family="Arial" font-size="10.00">- Trigger cron job</text>
<text text-anchor="middle" x="102.77" y="-7" font-family="Arial" font-size="10.00">- Gain root access</text>
</g>
<!-- Privilege_Escalation&#45;&gt;Root_Shell -->
<g id="edge8" class="edge">
<title>Privilege_Escalation-&gt;Root_Shell</title>
<path fill="none" stroke="gray" stroke-width="1.2" d="M102.77,-127.33C102.77,-105.82 102.77,-75.83 102.77,-53.52"/>
<polygon fill="gray" stroke="gray" stroke-width="1.2" points="102.77,-45.63 106.37,-53.63 102.87,-48.17 102.87,-53.63 102.77,-53.63 102.67,-53.63 102.67,-48.17 99.17,-53.63 102.77,-45.63"/>
<text text-anchor="middle" x="138.34" y="-90" font-family="Times,serif" font-size="14.00">Restore cron</text>
<text text-anchor="middle" x="138.34" y="-73.2" font-family="Times,serif" font-size="14.00">job for RCE</text>
</g>
</g>
</svg>