<?xml version="1.0" encoding="UTF-8" standalone="no"?>
<!DOCTYPE svg PUBLIC "-//W3C//DTD SVG 1.1//EN"
 "http://www.w3.org/Graphics/SVG/1.1/DTD/svg11.dtd">
<!-- Generated by graphviz version 2.43.0 (0)
 -->
<!-- Title: ROAD_CTIDetection Pages: 1 -->
<svg width="978pt" height="573pt"
 viewBox="0.00 0.00 978.15 572.74" xmlns="http://www.w3.org/2000/svg" xmlns:xlink="http://www.w3.org/1999/xlink">
<g id="graph0" class="graph" transform="scale(1 1) rotate(0) translate(4 568.74)">
<title>ROAD_CTIDetection</title>
<polygon fill="#343541" stroke="transparent" points="-4,4 -4,-568.74 974.15,-568.74 974.15,4 -4,4"/>
<!-- ROAD -->
<g id="node1" class="node">
<title>ROAD</title>
<ellipse fill="#cdb4db" stroke="grey" cx="485.08" cy="-537.87" rx="485.15" ry="26.74"/>
<text text-anchor="middle" x="485.08" y="-541.67" font-family="Helvetica,sans-Serif" font-size="14.00" fill="#343541">R.O.A.D.</text>
<text text-anchor="middle" x="485.08" y="-526.67" font-family="Helvetica,sans-Serif" font-size="14.00" fill="#343541">Raw Intelligence → Organization &amp; Analysis → Actionable Detection → Deployment &amp; Refinement</text>
</g>
<!-- Step1 -->
<g id="node2" class="node">
<title>Step1</title>
<defs>
<linearGradient id="l_0" gradientUnits="userSpaceOnUse" x1="485.08" y1="-474" x2="485.08" y2="-438" >
<stop offset="0" style="stop-color:white;stop-opacity:1.;"/>
<stop offset="1" style="stop-color:lightgrey;stop-opacity:1.;"/>
</linearGradient>
</defs>
<path fill="url(#l_0)" stroke="grey" d="M607.58,-474C607.58,-474 362.58,-474 362.58,-474 356.58,-474 350.58,-468 350.58,-462 350.58,-462 350.58,-450 350.58,-450 350.58,-444 356.58,-438 362.58,-438 362.58,-438 607.58,-438 607.58,-438 613.58,-438 619.58,-444 619.58,-450 619.58,-450 619.58,-462 619.58,-462 619.58,-468 613.58,-474 607.58,-474"/>
<text text-anchor="middle" x="485.08" y="-452.3" font-family="Helvetica,sans-Serif" font-size="14.00" fill="#343541">Step 1: Collection and Normalization</text>
</g>
<!-- ROAD&#45;&gt;Step1 -->
<g id="edge1" class="edge">
<title>ROAD&#45;&gt;Step1</title>
<path fill="none" stroke="#aaaaaa" d="M485.08,-510.72C485.08,-502.27 485.08,-492.89 485.08,-484.36"/>
<polygon fill="#aaaaaa" stroke="#aaaaaa" points="488.58,-484.15 485.08,-474.15 481.58,-484.15 488.58,-484.15"/>
</g>
<!-- Step2 -->
<g id="node3" class="node">
<title>Step2</title>
<defs>
<linearGradient id="l_1" gradientUnits="userSpaceOnUse" x1="485.08" y1="-401" x2="485.08" y2="-365" >
<stop offset="0" style="stop-color:white;stop-opacity:1.;"/>
<stop offset="1" style="stop-color:lightgrey;stop-opacity:1.;"/>
</linearGradient>
</defs>
<path fill="url(#l_1)" stroke="grey" d="M626.58,-401C626.58,-401 343.58,-401 343.58,-401 337.58,-401 331.58,-395 331.58,-389 331.58,-389 331.58,-377 331.58,-377 331.58,-371 337.58,-365 343.58,-365 343.58,-365 626.58,-365 626.58,-365 632.58,-365 638.58,-371 638.58,-377 638.58,-377 638.58,-389 638.58,-389 638.58,-395 632.58,-401 626.58,-401"/>
<text text-anchor="middle" x="485.08" y="-379.3" font-family="Helvetica,sans-Serif" font-size="14.00" fill="#343541">Step 2: Contextualization and Enrichment</text>
</g>
<!-- Step1&#45;&gt;Step2 -->
<g id="edge2" class="edge">
<title>Step1&#45;&gt;Step2</title>
<path fill="none" stroke="#aaaaaa" d="M485.08,-437.81C485.08,-429.79 485.08,-420.05 485.08,-411.07"/>
<polygon fill="#aaaaaa" stroke="#aaaaaa" points="488.58,-411.03 485.08,-401.03 481.58,-411.03 488.58,-411.03"/>
</g>
<!-- Example1 -->
<g id="node8" class="node">
<title>Example1</title>
<path fill="#f4c2c2" stroke="grey" d="M883.08,-36C883.08,-36 635.08,-36 635.08,-36 629.08,-36 623.08,-30 623.08,-24 623.08,-24 623.08,-12 623.08,-12 623.08,-6 629.08,0 635.08,0 635.08,0 883.08,0 883.08,0 889.08,0 895.08,-6 895.08,-12 895.08,-12 895.08,-24 895.08,-24 895.08,-30 889.08,-36 883.08,-36"/>
<text text-anchor="middle" x="759.08" y="-14.3" font-family="Helvetica,sans-Serif" font-size="14.00" fill="#343541">Practical Example: Phishing and BEC</text>
</g>
<!-- Step1&#45;&gt;Example1 -->
<g id="edge7" class="edge">
<title>Step1&#45;&gt;Example1</title>
<path fill="none" stroke="#aaaaaa" d="M619.58,-454.49C727.85,-450.31 862.08,-434.87 862.08,-384 862.08,-384 862.08,-384 862.08,-90 862.08,-67.49 845.19,-51.56 825.09,-40.59"/>
<polygon fill="#aaaaaa" stroke="#aaaaaa" points="826.51,-37.38 816,-36.03 823.37,-43.64 826.51,-37.38"/>
<text text-anchor="middle" x="916.08" y="-233.9" font-family="Helvetica,sans-Serif" font-size="12.00" fill="#eeeeee">Relevant Example</text>
</g>
<!-- Example2 -->
<g id="node9" class="node">
<title>Example2</title>
<path fill="#b4d7a8" stroke="grey" d="M380.08,-36C380.08,-36 42.08,-36 42.08,-36 36.08,-36 30.08,-30 30.08,-24 30.08,-24 30.08,-12 30.08,-12 30.08,-6 36.08,0 42.08,0 42.08,0 380.08,0 380.08,0 386.08,0 392.08,-6 392.08,-12 392.08,-12 392.08,-24 392.08,-24 392.08,-30 386.08,-36 380.08,-36"/>
<text text-anchor="middle" x="211.08" y="-14.3" font-family="Helvetica,sans-Serif" font-size="14.00" fill="#343541">Practical Example: Insider Threat Data Exfiltration</text>
</g>
<!-- Step1&#45;&gt;Example2 -->
<g id="edge8" class="edge">
<title>Step1&#45;&gt;Example2</title>
<path fill="none" stroke="#aaaaaa" d="M350.31,-447.31C212.37,-437.57 18.08,-417.85 18.08,-384 18.08,-384 18.08,-384 18.08,-90 18.08,-67.88 63.31,-50.53 109.98,-38.53"/>
<polygon fill="#aaaaaa" stroke="#aaaaaa" points="111.09,-41.86 119.94,-36.05 109.4,-35.07 111.09,-41.86"/>
<text text-anchor="middle" x="72.08" y="-233.9" font-family="Helvetica,sans-Serif" font-size="12.00" fill="#eeeeee">Relevant Example</text>
</g>
<!-- Step3 -->
<g id="node4" class="node">
<title>Step3</title>
<defs>
<linearGradient id="l_2" gradientUnits="userSpaceOnUse" x1="485.08" y1="-328" x2="485.08" y2="-292" >
<stop offset="0" style="stop-color:white;stop-opacity:1.;"/>
<stop offset="1" style="stop-color:lightgrey;stop-opacity:1.;"/>
</linearGradient>
</defs>
<path fill="url(#l_2)" stroke="grey" d="M674.58,-328C674.58,-328 295.58,-328 295.58,-328 289.58,-328 283.58,-322 283.58,-316 283.58,-316 283.58,-304 283.58,-304 283.58,-298 289.58,-292 295.58,-292 295.58,-292 674.58,-292 674.58,-292 680.58,-292 686.58,-298 686.58,-304 686.58,-304 686.58,-316 686.58,-316 686.58,-322 680.58,-328 674.58,-328"/>
<text text-anchor="middle" x="485.08" y="-306.3" font-family="Helvetica,sans-Serif" font-size="14.00" fill="#343541">Step 3: Threat Prioritization and Use Case Development</text>
</g>
<!-- Step2&#45;&gt;Step3 -->
<g id="edge3" class="edge">
<title>Step2&#45;&gt;Step3</title>
<path fill="none" stroke="#aaaaaa" d="M485.08,-364.81C485.08,-356.79 485.08,-347.05 485.08,-338.07"/>
<polygon fill="#aaaaaa" stroke="#aaaaaa" points="488.58,-338.03 485.08,-328.03 481.58,-338.03 488.58,-338.03"/>
</g>
<!-- Step2&#45;&gt;Example1 -->
<g id="edge9" class="edge">
<title>Step2&#45;&gt;Example1</title>
<path fill="none" stroke="#aaaaaa" d="M638.95,-375.82C725.39,-367.98 816.08,-350.38 816.08,-311 816.08,-311 816.08,-311 816.08,-90 816.08,-71.63 804.33,-55.31 791.51,-42.96"/>
<polygon fill="#aaaaaa" stroke="#aaaaaa" points="793.7,-40.23 783.91,-36.17 789.03,-45.44 793.7,-40.23"/>
</g>
<!-- Step2&#45;&gt;Example2 -->
<g id="edge10" class="edge">
<title>Step2&#45;&gt;Example2</title>
<path fill="none" stroke="#aaaaaa" d="M331.2,-375.82C244.76,-367.98 154.08,-350.38 154.08,-311 154.08,-311 154.08,-311 154.08,-90 154.08,-71.63 165.82,-55.31 178.64,-42.96"/>
<polygon fill="#aaaaaa" stroke="#aaaaaa" points="181.12,-45.44 186.24,-36.17 176.45,-40.23 181.12,-45.44"/>
</g>
<!-- Step4 -->
<g id="node5" class="node">
<title>Step4</title>
<defs>
<linearGradient id="l_3" gradientUnits="userSpaceOnUse" x1="485.08" y1="-255" x2="485.08" y2="-219" >
<stop offset="0" style="stop-color:white;stop-opacity:1.;"/>
<stop offset="1" style="stop-color:lightgrey;stop-opacity:1.;"/>
</linearGradient>
</defs>
<path fill="url(#l_3)" stroke="grey" d="M602.58,-255C602.58,-255 367.58,-255 367.58,-255 361.58,-255 355.58,-249 355.58,-243 355.58,-243 355.58,-231 355.58,-231 355.58,-225 361.58,-219 367.58,-219 367.58,-219 602.58,-219 602.58,-219 608.58,-219 614.58,-225 614.58,-231 614.58,-231 614.58,-243 614.58,-243 614.58,-249 608.58,-255 602.58,-255"/>
<text text-anchor="middle" x="485.08" y="-233.3" font-family="Helvetica,sans-Serif" font-size="14.00" fill="#343541">Step 4: Creation of Detection Rules</text>
</g>
<!-- Step3&#45;&gt;Step4 -->
<g id="edge4" class="edge">
<title>Step3&#45;&gt;Step4</title>
<path fill="none" stroke="#aaaaaa" d="M485.08,-291.81C485.08,-283.79 485.08,-274.05 485.08,-265.07"/>
<polygon fill="#aaaaaa" stroke="#aaaaaa" points="488.58,-265.03 485.08,-255.03 481.58,-265.03 488.58,-265.03"/>
</g>
<!-- Step3&#45;&gt;Example1 -->
<g id="edge11" class="edge">
<title>Step3&#45;&gt;Example1</title>
<path fill="none" stroke="#aaaaaa" d="M674.77,-291.96C731.1,-281.55 778.08,-264.82 778.08,-238 778.08,-238 778.08,-238 778.08,-90 778.08,-75.1 774.12,-59.02 769.82,-45.93"/>
<polygon fill="#aaaaaa" stroke="#aaaaaa" points="773,-44.43 766.37,-36.16 766.4,-46.76 773,-44.43"/>
</g>
<!-- Step3&#45;&gt;Example2 -->
<g id="edge12" class="edge">
<title>Step3&#45;&gt;Example2</title>
<path fill="none" stroke="#aaaaaa" d="M295.38,-291.96C239.05,-281.55 192.08,-264.82 192.08,-238 192.08,-238 192.08,-238 192.08,-90 192.08,-75.1 196.03,-59.02 200.33,-45.93"/>
<polygon fill="#aaaaaa" stroke="#aaaaaa" points="203.75,-46.76 203.78,-36.16 197.15,-44.43 203.75,-46.76"/>
</g>
<!-- Step5 -->
<g id="node6" class="node">
<title>Step5</title>
<defs>
<linearGradient id="l_4" gradientUnits="userSpaceOnUse" x1="485.08" y1="-182" x2="485.08" y2="-146" >
<stop offset="0" style="stop-color:white;stop-opacity:1.;"/>
<stop offset="1" style="stop-color:lightgrey;stop-opacity:1.;"/>
</linearGradient>
</defs>
<path fill="url(#l_4)" stroke="grey" d="M591.08,-182C591.08,-182 379.08,-182 379.08,-182 373.08,-182 367.08,-176 367.08,-170 367.08,-170 367.08,-158 367.08,-158 367.08,-152 373.08,-146 379.08,-146 379.08,-146 591.08,-146 591.08,-146 597.08,-146 603.08,-152 603.08,-158 603.08,-158 603.08,-170 603.08,-170 603.08,-176 597.08,-182 591.08,-182"/>
<text text-anchor="middle" x="485.08" y="-160.3" font-family="Helvetica,sans-Serif" font-size="14.00" fill="#343541">Step 5: Deployment and Tuning</text>
</g>
<!-- Step4&#45;&gt;Step5 -->
<g id="edge5" class="edge">
<title>Step4&#45;&gt;Step5</title>
<path fill="none" stroke="#aaaaaa" d="M485.08,-218.81C485.08,-210.79 485.08,-201.05 485.08,-192.07"/>
<polygon fill="#aaaaaa" stroke="#aaaaaa" points="488.58,-192.03 485.08,-182.03 481.58,-192.03 488.58,-192.03"/>
</g>
<!-- Step4&#45;&gt;Example1 -->
<g id="edge13" class="edge">
<title>Step4&#45;&gt;Example1</title>
<path fill="none" stroke="#aaaaaa" d="M536.24,-218.98C587,-199.7 663.84,-163.65 711.08,-109 727.44,-90.06 740.37,-64.6 748.67,-45.59"/>
<polygon fill="#aaaaaa" stroke="#aaaaaa" points="751.92,-46.88 752.58,-36.3 745.47,-44.16 751.92,-46.88"/>
</g>
<!-- Step4&#45;&gt;Example2 -->
<g id="edge14" class="edge">
<title>Step4&#45;&gt;Example2</title>
<path fill="none" stroke="#aaaaaa" d="M430.47,-218.86C378.32,-199.86 300.93,-164.38 254.08,-109 238.24,-90.29 226.77,-64.75 219.68,-45.66"/>
<polygon fill="#aaaaaa" stroke="#aaaaaa" points="222.92,-44.32 216.28,-36.07 216.32,-46.66 222.92,-44.32"/>
</g>
<!-- Step6 -->
<g id="node7" class="node">
<title>Step6</title>
<defs>
<linearGradient id="l_5" gradientUnits="userSpaceOnUse" x1="485.08" y1="-109" x2="485.08" y2="-73" >
<stop offset="0" style="stop-color:white;stop-opacity:1.;"/>
<stop offset="1" style="stop-color:lightgrey;stop-opacity:1.;"/>
</linearGradient>
</defs>
<path fill="url(#l_5)" stroke="grey" d="M661.58,-109C661.58,-109 308.58,-109 308.58,-109 302.58,-109 296.58,-103 296.58,-97 296.58,-97 296.58,-85 296.58,-85 296.58,-79 302.58,-73 308.58,-73 308.58,-73 661.58,-73 661.58,-73 667.58,-73 673.58,-79 673.58,-85 673.58,-85 673.58,-97 673.58,-97 673.58,-103 667.58,-109 661.58,-109"/>
<text text-anchor="middle" x="485.08" y="-87.3" font-family="Helvetica,sans-Serif" font-size="14.00" fill="#343541">Step 6: Measurement and Continuous Improvement</text>
</g>
<!-- Step5&#45;&gt;Step6 -->
<g id="edge6" class="edge">
<title>Step5&#45;&gt;Step6</title>
<path fill="none" stroke="#aaaaaa" d="M485.08,-145.81C485.08,-137.79 485.08,-128.05 485.08,-119.07"/>
<polygon fill="#aaaaaa" stroke="#aaaaaa" points="488.58,-119.03 485.08,-109.03 481.58,-119.03 488.58,-119.03"/>
</g>
<!-- Step5&#45;&gt;Example1 -->
<g id="edge15" class="edge">
<title>Step5&#45;&gt;Example1</title>
<path fill="none" stroke="#aaaaaa" d="M596.01,-145.98C625.95,-137.96 657.19,-126.21 683.08,-109 708.91,-91.82 705.86,-77.54 726.08,-54 729.03,-50.56 732.22,-47 735.41,-43.53"/>
<polygon fill="#aaaaaa" stroke="#aaaaaa" points="738.03,-45.85 742.3,-36.16 732.92,-41.07 738.03,-45.85"/>
</g>
<!-- Step5&#45;&gt;Example2 -->
<g id="edge16" class="edge">
<title>Step5&#45;&gt;Example2</title>
<path fill="none" stroke="#aaaaaa" d="M375.85,-145.98C345.75,-137.96 314.22,-126.2 288.08,-109 261.92,-91.8 264.61,-77.63 244.08,-54 241.1,-50.57 237.9,-47.03 234.7,-43.56"/>
<polygon fill="#aaaaaa" stroke="#aaaaaa" points="237.2,-41.1 227.81,-36.19 232.08,-45.88 237.2,-41.1"/>
</g>
<!-- Step6&#45;&gt;Example1 -->
<g id="edge17" class="edge">
<title>Step6&#45;&gt;Example1</title>
<path fill="none" stroke="#aaaaaa" d="M550.71,-72.99C590.57,-62.66 641.63,-49.43 683.22,-38.66"/>
<polygon fill="#aaaaaa" stroke="#aaaaaa" points="684.23,-42.01 693.03,-36.11 682.47,-35.23 684.23,-42.01"/>
</g>
<!-- Step6&#45;&gt;Example2 -->
<g id="edge18" class="edge">
<title>Step6&#45;&gt;Example2</title>
<path fill="none" stroke="#aaaaaa" d="M419.45,-72.99C379.58,-62.66 328.52,-49.43 286.93,-38.66"/>
<polygon fill="#aaaaaa" stroke="#aaaaaa" points="287.68,-35.23 277.12,-36.11 285.92,-42.01 287.68,-35.23"/>
</g>
</g>
</svg>
